<svg width="108" height="32" viewBox="0 0 108 32" fill="none" xmlns="http://www.w3.org/2000/svg">
<path d="M13.2 2.87183H18.36L30.68 30.8198H23.64L21.2 24.8986H10.2L7.83996 30.8198H0.959961L13.2 2.87183ZM15.6 11.0036L12.16 19.688H19.08L15.6 11.0036Z" fill="white"/>
<path d="M32.8484 0.977051H38.8484V30.8198H32.8484V0.977051Z" fill="white"/>
<path d="M43.239 11.6352H49.239V30.8198H43.239V11.6352ZM42.759 5.59556C42.759 4.64818 43.0924 3.84553 43.759 3.18762C44.4524 2.5034 45.279 2.16129 46.239 2.16129C47.199 2.16129 48.0124 2.5034 48.679 3.18762C49.3724 3.84553 49.719 4.64818 49.719 5.59556C49.719 6.54295 49.3724 7.35876 48.679 8.04298C48.0124 8.70089 47.199 9.02985 46.239 9.02985C45.279 9.02985 44.4524 8.70089 43.759 8.04298C43.0924 7.35876 42.759 6.54295 42.759 5.59556Z" fill="white"/>
<path d="M51.5097 11.6352H57.9897L62.9097 24.6617H62.9897L67.5497 11.6352H73.5897L65.9097 30.8198H59.5497L51.5097 11.6352Z" fill="white"/>
<path d="M75.8562 11.6352H81.8562V30.8198H75.8562V11.6352ZM75.3762 5.59556C75.3762 4.64818 75.7096 3.84553 76.3762 3.18762C77.0696 2.5034 77.8962 2.16129 78.8562 2.16129C79.8162 2.16129 80.6296 2.5034 81.2962 3.18762C81.9896 3.84553 82.3362 4.64818 82.3362 5.59556C82.3362 6.54295 81.9896 7.35876 81.2962 8.04298C80.6296 8.70089 79.8162 9.02985 78.8562 9.02985C77.8962 9.02985 77.0696 8.70089 76.3762 8.04298C75.7096 7.35876 75.3762 6.54295 75.3762 5.59556Z" fill="white"/>
<path d="M85.4468 21.2275C85.4468 19.7011 85.7268 18.3195 86.2868 17.0826C86.8468 15.8458 87.6068 14.7931 88.5668 13.9247C89.5535 13.0299 90.7002 12.3457 92.0068 11.872C93.3402 11.3983 94.7535 11.1615 96.2468 11.1615C97.7402 11.1615 99.1402 11.3983 100.447 11.872C101.78 12.3457 102.927 13.0299 103.887 13.9247C104.874 14.7931 105.647 15.8458 106.207 17.0826C106.767 18.3195 107.047 19.7011 107.047 21.2275C107.047 22.7538 106.767 24.1354 106.207 25.3723C105.647 26.6092 104.874 27.675 103.887 28.5697C102.927 29.4382 101.78 30.1092 100.447 30.5829C99.1402 31.0566 97.7402 31.2935 96.2468 31.2935C94.7535 31.2935 93.3402 31.0566 92.0068 30.5829C90.7002 30.1092 89.5535 29.4382 88.5668 28.5697C87.6068 27.675 86.8468 26.6092 86.2868 25.3723C85.7268 24.1354 85.4468 22.7538 85.4468 21.2275ZM91.4468 21.2275C91.4468 22.6749 91.8602 23.8459 92.6868 24.7407C93.5402 25.6354 94.7268 26.0828 96.2468 26.0828C97.7668 26.0828 98.9402 25.6354 99.7669 24.7407C100.62 23.8459 101.047 22.6749 101.047 21.2275C101.047 19.7801 100.62 18.609 99.7669 17.7142C98.9402 16.8195 97.7668 16.3721 96.2468 16.3721C94.7268 16.3721 93.5402 16.8195 92.6868 17.7142C91.8602 18.609 91.4468 19.7801 91.4468 21.2275Z" fill="white"/>
</svg>
