<svg width="81" height="24" viewBox="0 0 81 24" fill="none" xmlns="http://www.w3.org/2000/svg">
<path d="M10.15 2.32953H14.02L23.26 23.2904H17.98L16.15 18.8496H7.89997L6.12997 23.2904H0.969971L10.15 2.32953ZM11.95 8.42832L9.36997 14.9416H14.56L11.95 8.42832Z" fill="#01996D"/>
<path d="M24.8863 0.908447H29.3863V23.2904H24.8863V0.908447Z" fill="#01996D"/>
<path d="M32.6793 8.90202H37.1793V23.2904H32.6793V8.90202ZM32.3193 4.37233C32.3193 3.66179 32.5693 3.0598 33.0693 2.56637C33.5893 2.05321 34.2093 1.79662 34.9293 1.79662C35.6493 1.79662 36.2593 2.05321 36.7593 2.56637C37.2793 3.0598 37.5393 3.66179 37.5393 4.37233C37.5393 5.08287 37.2793 5.69472 36.7593 6.20789C36.2593 6.70132 35.6493 6.94803 34.9293 6.94803C34.2093 6.94803 33.5893 6.70132 33.0693 6.20789C32.5693 5.69472 32.3193 5.08287 32.3193 4.37233Z" fill="#01996D"/>
<path d="M38.8822 8.90202H43.7422L47.4322 18.6719H47.4922L50.9122 8.90202H55.4422L49.6822 23.2904H44.9122L38.8822 8.90202Z" fill="#01996D"/>
<path d="M57.1422 8.90202H61.6422V23.2904H57.1422V8.90202ZM56.7822 4.37233C56.7822 3.66179 57.0322 3.0598 57.5322 2.56637C58.0522 2.05321 58.6722 1.79662 59.3922 1.79662C60.1122 1.79662 60.7222 2.05321 61.2222 2.56637C61.7422 3.0598 62.0022 3.66179 62.0022 4.37233C62.0022 5.08287 61.7422 5.69472 61.2222 6.20789C60.7222 6.70132 60.1122 6.94803 59.3922 6.94803C58.6722 6.94803 58.0522 6.70132 57.5322 6.20789C57.0322 5.69472 56.7822 5.08287 56.7822 4.37233Z" fill="#01996D"/>
<path d="M64.3351 16.0962C64.3351 14.9515 64.5451 13.9153 64.9651 12.9876C65.3851 12.06 65.9551 11.2705 66.6751 10.6192C67.4151 9.94809 68.2751 9.43492 69.2551 9.07965C70.2551 8.72438 71.3151 8.54675 72.4351 8.54675C73.5551 8.54675 74.6051 8.72438 75.5851 9.07965C76.5851 9.43492 77.4451 9.94809 78.1651 10.6192C78.9051 11.2705 79.4851 12.06 79.9051 12.9876C80.3251 13.9153 80.5351 14.9515 80.5351 16.0962C80.5351 17.241 80.3251 18.2772 79.9051 19.2048C79.4851 20.1325 78.9051 20.9318 78.1651 21.6029C77.4451 22.2542 76.5851 22.7575 75.5851 23.1128C74.6051 23.4681 73.5551 23.6457 72.4351 23.6457C71.3151 23.6457 70.2551 23.4681 69.2551 23.1128C68.2751 22.7575 67.4151 22.2542 66.6751 21.6029C65.9551 20.9318 65.3851 20.1325 64.9651 19.2048C64.5451 18.2772 64.3351 17.241 64.3351 16.0962ZM68.8351 16.0962C68.8351 17.1818 69.1451 18.0601 69.7651 18.7311C70.4051 19.4022 71.2951 19.7377 72.4351 19.7377C73.5751 19.7377 74.4551 19.4022 75.0751 18.7311C75.7151 18.0601 76.0351 17.1818 76.0351 16.0962C76.0351 15.0107 75.7151 14.1324 75.0751 13.4613C74.4551 12.7902 73.5751 12.4547 72.4351 12.4547C71.2951 12.4547 70.4051 12.7902 69.7651 13.4613C69.1451 14.1324 68.8351 15.0107 68.8351 16.0962Z" fill="#01996D"/>
</svg>
